<svg xmlns="http://www.w3.org/2000/svg" viewBox="0 0 512 512">
<g fill="#0B92A4">
<path d="M 227.23 30.03 L 220.53 30.94 L 213.87 32.03 L 207.27 33.32 L 200.72 34.79 L 194.24 36.45 L 187.81 38.31 L 181.45 40.34 L 175.15 42.57 L 168.93 44.98 L 162.78 47.58 L 156.71 50.36 L 150.72 53.32 L 144.81 56.47 L 138.98 59.80 L 133.25 63.30 L 127.61 66.99 L 122.07 70.84 L 116.64 74.86 L 111.31 79.04 L 106.11 83.38 L 101.02 87.86 L 96.06 92.50 L 91.23 97.27 L 86.53 102.18 L 81.98 107.22 L 77.58 112.39 L 73.32 117.69 L 69.23 123.10 L 65.30 128.62 L 61.53 134.25 L 57.93 139.98 L 54.50 145.81 L 51.24 151.73 L 48.16 157.73 L 45.25 163.82 L 42.52 169.98 L 39.97 176.21 L 37.59 182.50 L 35.40 188.86 L 33.39 195.26 L 31.56 201.71 L 29.93 208.21 L 28.47 214.74 L 27.22 221.31 L 26.15 227.90 L 25.29 234.53 L 24.64 241.19 L 24.21 247.87 L 24.00 254.59 L 24.02 261.33 L 24.26 268.08 L 24.72 274.84 L 25.40 281.58 L 26.29 288.29 L 27.38 294.95 L 28.67 301.54 L 30.15 308.07 L 31.83 314.53 L 33.69 320.93 L 35.74 327.27 L 37.97 333.56 L 40.37 339.78 L 42.96 345.96 L 45.71 352.08 L 48.63 358.15 L 51.72 364.18 L 54.97 370.17 L 58.38 376.12 L 61.95 382.03 L 65.67 387.90 L 69.56 393.66 L 73.65 399.23 L 77.94 404.53 L 82.47 409.48 L 87.25 413.98 L 92.31 417.96 L 97.67 421.33 L 103.34 423.81 L 109.40 424.13 L 115.83 421.94 L 122.44 419.48 L 129.09 417.48 L 135.70 415.71 L 142.16 413.95 L 148.48 412.09 L 154.72 410.16 L 160.92 408.18 L 167.17 406.17 L 173.51 404.14 L 180.00 402.12 L 186.68 400.10 L 193.40 397.96 L 199.95 395.53 L 206.12 392.65 L 211.69 389.15 L 216.46 384.86 L 220.22 379.62 L 222.37 373.61 L 221.14 368.03 L 216.23 363.62 L 209.90 360.12 L 203.57 357.30 L 197.24 355.08 L 190.81 353.44 L 184.20 352.29 L 177.49 351.46 L 170.72 350.74 L 163.97 349.95 L 157.30 348.90 L 150.79 347.39 L 144.48 345.27 L 138.44 342.53 L 132.70 339.21 L 127.31 335.36 L 122.31 331.01 L 117.75 326.19 L 113.66 320.96 L 110.10 315.34 L 107.05 309.39 L 104.49 303.16 L 102.37 296.71 L 100.65 290.09 L 99.30 283.35 L 98.29 276.55 L 97.58 269.74 L 97.16 262.94 L 97.03 256.15 L 97.18 249.40 L 97.63 242.68 L 98.36 236.00 L 99.39 229.38 L 100.70 222.81 L 102.29 216.32 L 104.17 209.91 L 106.34 203.59 L 108.79 197.36 L 111.53 191.24 L 114.55 185.23 L 117.84 179.35 L 121.39 173.60 L 125.20 167.99 L 129.24 162.54 L 133.52 157.26 L 138.01 152.15 L 142.72 147.22 L 147.63 142.49 L 152.72 137.96 L 158.00 133.65 L 163.44 129.56 L 169.05 125.70 L 174.80 122.09 L 180.69 118.73 L 186.70 115.64 L 192.84 112.81 L 199.07 110.25 L 205.41 107.95 L 211.83 105.92 L 218.33 104.16 L 224.89 102.66 L 231.51 101.43 L 238.16 100.47 L 244.86 99.77 L 251.57 99.34 L 258.30 99.18 L 265.03 99.29 L 271.75 99.66 L 278.45 100.31 L 285.12 101.22 L 291.75 102.42 L 298.32 103.88 L 304.83 105.63 L 311.26 107.65 L 317.61 109.96 L 323.86 112.55 L 330.00 115.42 L 336.02 118.59 L 341.90 122.04 L 347.65 125.78 L 353.24 129.82 L 358.77 133.43 L 364.53 134.64 L 370.46 132.57 L 375.94 128.28 L 380.74 123.02 L 385.13 118.06 L 389.63 113.70 L 394.96 108.85 L 400.61 103.30 L 405.26 97.44 L 407.61 91.69 L 406.77 86.35 L 403.43 81.41 L 398.60 76.80 L 393.25 72.43 L 387.76 68.29 L 382.15 64.36 L 376.43 60.64 L 370.59 57.14 L 364.66 53.84 L 358.63 50.76 L 352.52 47.88 L 346.32 45.21 L 340.05 42.75 L 333.72 40.48 L 327.32 38.42 L 320.88 36.56 L 314.39 34.89 L 307.86 33.42 L 301.29 32.14 L 294.69 31.05 L 288.06 30.15 L 281.39 29.43 L 274.68 28.89 L 267.94 28.52 L 261.17 28.32 L 254.37 28.30 L 247.56 28.46 L 240.76 28.80 L 233.98 29.32 Z"/>
<path d="M 430.85 118.36 L 425.93 120.67 L 421.18 124.88 L 416.60 130.04 L 412.23 135.21 L 408.05 139.60 L 403.89 143.32 L 399.52 146.90 L 394.70 150.85 L 389.91 155.49 L 387.58 160.65 L 389.00 166.09 L 392.00 171.52 L 395.05 176.82 L 398.00 182.06 L 400.81 187.33 L 403.43 192.69 L 405.84 198.15 L 408.04 203.71 L 410.02 209.35 L 411.78 215.08 L 413.32 220.87 L 414.62 226.73 L 415.68 232.63 L 416.49 238.58 L 417.06 244.57 L 417.36 250.58 L 417.41 256.61 L 417.19 262.65 L 416.70 268.69 L 415.95 274.71 L 414.95 280.69 L 413.73 286.63 L 412.29 292.49 L 410.65 298.25 L 408.84 303.91 L 406.84 309.46 L 404.65 314.92 L 402.24 320.32 L 399.59 325.69 L 396.69 331.06 L 393.51 336.46 L 390.04 341.92 L 386.26 347.23 L 382.23 351.38 L 378.01 353.47 L 373.62 353.35 L 369.05 351.24 L 364.31 347.81 L 359.40 343.77 L 354.32 339.86 L 349.07 336.46 L 343.68 333.53 L 338.17 330.98 L 332.57 328.74 L 326.91 326.74 L 321.20 324.90 L 315.47 323.15 L 309.74 321.46 L 303.98 319.85 L 298.21 318.32 L 292.42 316.87 L 286.61 315.51 L 280.77 314.26 L 274.89 313.11 L 268.99 312.07 L 263.05 311.14 L 257.07 310.34 L 251.05 309.68 L 244.99 309.15 L 238.87 308.76 L 232.76 308.51 L 226.72 308.40 L 220.86 308.40 L 215.07 308.49 L 208.88 308.55 L 201.74 308.47 L 194.82 308.49 L 193.12 309.57 L 196.69 311.36 L 201.92 312.75 L 207.94 313.89 L 214.19 315.01 L 220.25 316.33 L 226.10 317.85 L 231.80 319.55 L 237.39 321.41 L 242.92 323.41 L 248.45 325.53 L 254.03 327.74 L 259.66 330.06 L 265.26 332.55 L 270.77 335.26 L 276.10 338.28 L 281.16 341.66 L 285.89 345.47 L 290.21 349.77 L 294.03 354.57 L 297.29 359.77 L 299.91 365.28 L 301.84 371.01 L 302.99 376.87 L 303.30 382.74 L 302.69 388.55 L 301.20 394.23 L 298.93 399.77 L 296.01 405.13 L 292.57 410.31 L 288.73 415.30 L 284.63 420.06 L 280.38 424.59 L 276.03 428.89 L 271.58 432.98 L 267.03 436.87 L 262.35 440.58 L 257.55 444.13 L 252.61 447.55 L 247.52 450.83 L 242.29 454.02 L 236.94 457.12 L 231.54 460.16 L 226.16 463.17 L 220.86 466.17 L 215.69 469.19 L 210.74 472.25 L 206.19 475.35 L 207.37 477.84 L 213.97 479.29 L 219.95 480.33 L 225.87 481.21 L 231.87 481.98 L 237.91 482.63 L 243.96 483.13 L 250.02 483.48 L 256.07 483.67 L 262.11 483.70 L 268.15 483.57 L 274.18 483.27 L 280.19 482.81 L 286.19 482.18 L 292.18 481.39 L 298.13 480.43 L 304.06 479.32 L 309.96 478.04 L 315.83 476.61 L 321.65 475.03 L 327.44 473.29 L 333.18 471.40 L 338.87 469.36 L 344.50 467.17 L 350.08 464.83 L 355.59 462.35 L 361.04 459.73 L 366.43 456.97 L 371.74 454.07 L 376.97 451.04 L 382.13 447.86 L 387.20 444.56 L 392.18 441.12 L 397.07 437.55 L 401.87 433.86 L 406.56 430.04 L 411.16 426.09 L 415.64 422.02 L 420.02 417.84 L 424.29 413.53 L 428.43 409.10 L 432.46 404.57 L 436.36 399.92 L 440.14 395.17 L 443.79 390.32 L 447.31 385.37 L 450.70 380.34 L 453.96 375.21 L 457.08 370.00 L 460.06 364.72 L 462.90 359.36 L 465.60 353.93 L 468.15 348.44 L 470.55 342.89 L 472.81 337.28 L 474.91 331.62 L 476.86 325.91 L 478.66 320.15 L 480.30 314.36 L 481.79 308.53 L 483.12 302.66 L 484.29 296.76 L 485.30 290.84 L 486.15 284.89 L 486.85 278.92 L 487.38 272.93 L 487.75 266.94 L 487.96 260.93 L 488.00 254.92 L 487.88 248.90 L 487.60 242.89 L 487.15 236.89 L 486.55 230.90 L 485.78 224.92 L 484.85 218.97 L 483.77 213.04 L 482.52 207.14 L 481.12 201.27 L 479.55 195.45 L 477.83 189.66 L 475.96 183.93 L 473.92 178.25 L 471.74 172.63 L 469.41 167.08 L 466.93 161.62 L 464.33 156.23 L 461.62 150.85 L 458.85 145.45 L 456.00 140.01 L 452.93 134.66 L 449.46 129.56 L 445.42 124.89 L 440.82 121.02 L 435.88 118.61 Z"/>
</g></svg>
